# xmcd CD database file
# Copyright (C) 1996 Ti Kan
#
# Track frame offsets:
# 	150
# 	17150
# 	33662
# 	50627
# 	65722
# 	80437
# 	97400
# 	110800
# 	124085
# 	142247
#
# Disc length: 2122 seconds
#
# Revision: 1
# Processed by: cddbd v1.4b41PL1 Copyright (c) Steve Scherf et al.
# Submitted via: DiscPlay 3.4.1
#
DISCID=9e08480a
DTITLE=Shenandoah - Shenandoah
DYEAR=1900
DGENRE=
TTITLE0=Stop the Rain
TTITLE1=She Doesn't Cry Anymore
TTITLE2=It Ain't Love Until It Hurts
TTITLE3=The Show Must Go On
TTITLE4=They Don't Make Love Like We Used To
TTITLE5=What She Wants
TTITLE6=She's Still Here
TTITLE7=I'm Gonna Hurt Her on the Radio
TTITLE8=Lily of the Alley
TTITLE9=Can't Stop Now
EXTD=
EXTT0=
EXTT1=
EXTT2=
EXTT3=
EXTT4=
EXTT5=
EXTT6=
EXTT7=
EXTT8=
EXTT9=
PLAYORDER=
